<svg width="199" height="50" viewBox="0 0 199 50" fill="none" xmlns="http://www.w3.org/2000/svg">
<rect x="3" width="50" height="50" rx="10" fill="#F9A826"/>
<path d="M14.128 35.062C20.214 34.892 29.666 34.552 38.234 34.178L38.098 37.918C29.768 38.394 20.792 38.802 14.672 39.04L14.128 35.062ZM13.958 24.93H42.246V28.738H13.958V24.93ZM20.01 18.402H35.956V22.142H20.01V18.402ZM22.288 27.412L26.946 28.704C25.348 31.9 23.512 35.436 21.982 37.714L18.412 36.524C19.806 34.042 21.438 30.268 22.288 27.412ZM30.72 30.914L34.324 29.044C37.384 31.662 40.546 35.232 42.11 37.816L38.336 40.094C36.908 37.51 33.644 33.634 30.72 30.914ZM27.966 12.112C25.212 15.988 19.908 20.34 14.264 23.026C13.788 22.04 12.7 20.51 11.85 19.626C17.664 17.076 23.104 12.214 25.62 8.202H29.938C33.542 13.2 38.948 17.076 44.354 19.014C43.368 20.034 42.45 21.496 41.702 22.72C36.602 20.34 30.856 16.056 27.966 12.112Z" fill="white"/>
<path d="M65.359 15.598C66.811 16.39 69.231 17.93 70.375 18.744L68.747 21.164C67.515 20.306 65.227 18.832 63.775 18.018L65.359 15.598ZM61.289 31.218C63.753 30.8 66.371 30.052 68.769 28.732C72.509 26.642 75.589 23.628 77.327 20.482L79.021 23.474C76.997 26.532 73.873 29.304 70.287 31.394C68.043 32.648 64.875 33.748 62.939 34.1L61.289 31.218ZM61.971 20.614C63.445 21.406 65.865 22.902 67.009 23.716L65.381 26.18C64.149 25.3 61.861 23.826 60.387 23.034L61.971 20.614ZM86.985 16.28C88.503 17.314 91.363 19.602 92.661 20.944L90.417 23.232C89.273 22 86.501 19.602 84.895 18.502L86.985 16.28ZM84.213 30.932C87.667 30.448 90.505 29.326 92.639 28.072C96.401 25.828 99.261 22.484 100.669 19.514L102.363 22.594C100.713 25.586 97.787 28.622 94.245 30.756C92.001 32.098 89.163 33.308 86.083 33.836L84.213 30.932ZM121.783 16.874C121.783 17.578 122.355 18.15 123.059 18.15C123.763 18.15 124.335 17.578 124.335 16.874C124.335 16.17 123.763 15.598 123.059 15.598C122.355 15.598 121.783 16.17 121.783 16.874ZM120.419 16.874C120.419 15.422 121.607 14.234 123.059 14.234C124.511 14.234 125.699 15.422 125.699 16.874C125.699 18.326 124.511 19.514 123.059 19.514C121.607 19.514 120.419 18.326 120.419 16.874ZM123.103 18.612C122.883 19.03 122.729 19.668 122.619 20.13C122.113 22.286 121.145 25.718 119.297 28.16C117.317 30.8 114.391 32.978 110.453 34.232L108.055 31.592C112.433 30.58 114.919 28.666 116.679 26.444C118.153 24.618 118.989 22.11 119.275 20.218C117.933 20.218 110.673 20.218 109.023 20.218C108.011 20.218 106.977 20.284 106.405 20.328V17.204C107.065 17.292 108.297 17.402 109.023 17.402C110.673 17.402 117.977 17.402 119.209 17.402C119.649 17.402 120.353 17.38 120.925 17.226L123.103 18.612ZM138.261 32.516C138.371 32.098 138.437 31.504 138.437 30.91C138.437 29.744 138.437 19.866 138.437 18.084C138.437 17.094 138.283 16.236 138.283 16.192H141.539C141.539 16.236 141.385 17.116 141.385 18.106C141.385 19.866 141.385 28.248 141.385 29.59C143.189 28.82 145.345 27.082 146.841 24.948L148.513 27.39C146.687 29.766 143.541 32.142 141.055 33.396C140.593 33.638 140.329 33.88 140.109 34.034L138.261 32.516ZM128.075 32.208C130.033 30.844 131.221 28.82 131.815 26.928C132.453 25.058 132.475 20.878 132.475 18.238C132.475 17.336 132.387 16.764 132.255 16.214H135.489C135.489 16.302 135.335 17.292 135.335 18.194C135.335 20.812 135.269 25.454 134.697 27.676C134.015 30.14 132.651 32.318 130.759 33.99L128.075 32.208ZM152.341 31.746C156.279 31.636 162.395 31.416 167.939 31.174L167.851 33.594C162.461 33.902 156.653 34.166 152.693 34.32L152.341 31.746ZM152.231 25.19H170.535V27.654H152.231V25.19ZM156.147 20.966H166.465V23.386H156.147V20.966ZM157.621 26.796L160.635 27.632C159.601 29.7 158.413 31.988 157.423 33.462L155.113 32.692C156.015 31.086 157.071 28.644 157.621 26.796ZM163.077 29.062L165.409 27.852C167.389 29.546 169.435 31.856 170.447 33.528L168.005 35.002C167.081 33.33 164.969 30.822 163.077 29.062ZM161.295 16.896C159.513 19.404 156.081 22.22 152.429 23.958C152.121 23.32 151.417 22.33 150.867 21.758C154.629 20.108 158.149 16.962 159.777 14.366H162.571C164.903 17.6 168.401 20.108 171.899 21.362C171.261 22.022 170.667 22.968 170.183 23.76C166.883 22.22 163.165 19.448 161.295 16.896ZM186.639 16.808H189.191V22.286H186.639V16.808ZM184.043 24.75H186.331V32.89C186.331 33.88 186.133 34.386 185.451 34.672C184.769 34.958 183.823 34.98 182.503 34.98C182.415 34.43 182.129 33.66 181.865 33.11C182.613 33.154 183.471 33.154 183.713 33.154C183.977 33.132 184.043 33.066 184.043 32.824V24.75ZM190.423 14.3L192.733 14.872C192.161 15.73 191.611 16.478 191.149 17.028L189.345 16.478C189.719 15.84 190.203 14.938 190.423 14.3ZM183.581 14.96L185.429 14.3C185.935 14.916 186.485 15.796 186.705 16.39L184.747 17.094C184.571 16.522 184.065 15.62 183.581 14.96ZM190.599 24.728L192.117 23.672C192.931 24.222 193.899 25.08 194.361 25.718L192.777 26.884C192.359 26.224 191.413 25.344 190.599 24.728ZM181.161 29.964C182.965 29.81 185.539 29.59 188.113 29.304L188.157 31.196C185.781 31.482 183.339 31.768 181.403 31.988L181.161 29.964ZM186.859 23.54L188.223 25.08C186.441 25.564 183.999 25.872 181.997 25.982C181.931 25.564 181.689 24.882 181.491 24.442C183.361 24.266 185.561 23.958 186.859 23.54ZM182.019 16.346H194.053V18.106H182.019V16.346ZM182.723 18.942H193.393V20.57H182.723V18.942ZM181.337 21.472H194.515V23.364H181.337V21.472ZM181.293 26.752H194.493V28.666H181.293V26.752ZM188.179 23.804H190.379C190.313 29.656 191.281 33.044 192.733 33.044C193.085 33.044 193.283 32.472 193.371 31.24C193.789 31.658 194.427 31.966 194.889 32.186C194.581 34.298 193.877 35.09 192.513 35.09C189.213 35.09 188.289 30.316 188.179 23.804ZM191.963 28.908L193.745 29.788C192.359 31.944 189.917 33.726 187.629 34.716C187.365 34.32 186.793 33.682 186.375 33.33C188.531 32.45 190.775 30.866 191.963 28.908ZM174.979 21.076H180.831V23.056H174.979V21.076ZM175.111 15.004H180.765V17.006H175.111V15.004ZM174.979 24.068H180.831V26.07H174.979V24.068ZM174.055 17.974H181.381V20.064H174.055V17.974ZM176.189 27.126H180.787V33.77H176.189V31.702H178.675V29.194H176.189V27.126ZM174.913 27.126H176.981V34.694H174.913V27.126Z" fill="#F9A826"/>
</svg>
